<svg width="24" height="24" viewBox="0 0 24 24" fill="none" xmlns="http://www.w3.org/2000/svg">
<path d="M12 11.8608L21.7568 6.5389C21.4465 5.51794 20.8171 4.62334 19.9609 3.9864C19.1048 3.34947 18.067 3.00375 17 3H6.99996C5.9329 3.00375 4.89514 3.34947 4.039 3.9864C3.18287 4.62334 2.55346 5.51794 2.24316 6.5389L12 11.8608Z" fill="#68A40E"/>
<path d="M12.479 13.8779C12.3321 13.958 12.1674 13.9999 12 13.9999C11.8326 13.9999 11.6679 13.958 11.521 13.8779L2 8.68457V16C2.00156 17.3256 2.52885 18.5964 3.46619 19.5338C4.40353 20.4711 5.6744 20.9984 7 21H17C18.3256 20.9984 19.5965 20.4711 20.5338 19.5338C21.4712 18.5964 21.9984 17.3256 22 16V8.68457L12.479 13.8779Z" fill="#68A40E"/>
</svg>
