<svg width="18" height="18" viewBox="0 0 18 18" fill="none" xmlns="http://www.w3.org/2000/svg">
<path d="M17.1274 13.3063L14.514 11.4804C14.1723 11.2421 13.7729 11.1164 13.3586 11.1164C12.7 11.1164 12.0817 11.4395 11.7051 11.9799L11.0984 12.8493C10.0817 12.1674 8.94717 11.2153 7.86562 10.134C6.78427 9.05261 5.83233 7.91808 5.15063 6.90133L6.01964 6.29467C6.46262 5.98622 6.75847 5.52414 6.85242 4.9939C6.94618 4.46406 6.828 3.92871 6.51915 3.48553L4.69366 0.87217C4.31194 0.326178 3.69602 0 3.04584 0C2.8205 0 2.59951 0.0397874 2.38915 0.117392C2.15023 0.205634 1.92765 0.313966 1.70941 0.451055L1.34857 0.705142C1.25836 0.775262 1.17445 0.85208 1.09409 0.932442C0.653867 1.37247 0.341477 1.92949 0.165192 2.58815C-0.587026 5.40793 1.27648 9.67187 4.80219 13.1976C7.763 16.1584 11.32 17.9977 14.0849 17.9981H14.0851C14.5586 17.9981 15.0049 17.9429 15.4118 17.8342C16.0705 17.6581 16.6275 17.3457 17.0679 16.9053C17.1479 16.8253 17.2243 16.7414 17.3063 16.6354L17.5605 16.2726C17.6848 16.0741 17.793 15.8515 17.8824 15.6108C18.1898 14.7796 17.8794 13.8318 17.1274 13.3063Z" fill="#68A40E"/>
</svg>
