<?xml version="1.0" ?>
<!DOCTYPE svg  PUBLIC '-//W3C//DTD SVG 1.1//EN'  'http://www.w3.org/Graphics/SVG/1.1/DTD/svg11.dtd'>
<!-- Uploaded to: SVG Repo, www.svgrepo.com, Generator: SVG Repo Mixer Tools -->
<svg fill="#000000" width="800px" height="800px" viewBox="0 0 32 32" style="fill-rule:evenodd;clip-rule:evenodd;stroke-linejoin:round;stroke-miterlimit:2;" version="1.1" xml:space="preserve" xmlns="http://www.w3.org/2000/svg" xmlns:serif="http://www.serif.com/" xmlns:xlink="http://www.w3.org/1999/xlink">
<g transform="matrix(1,0,0,1,-288,-144)">
<g transform="matrix(0.866025,-0.5,0.5,0.866025,-41.7717,172.694)">
<path d="M302,168.786C301.381,168.252 299.654,166.748 298.316,165.43C298.053,165.172 297.278,164.403 297.156,164.288C295.214,162.464 294,159.873 294,157C294,151.481 298.481,147 304,147C309.519,147 314,151.481 314,157C314,159.522 313.064,161.828 311.521,163.587C311.237,163.912 310.177,165.003 310.007,165.178C308.648,166.569 306.672,168.253 306,168.818L306,174C306,174.552 305.552,175 305,175C304.389,175 303.611,175 303,175C302.735,175 302.48,174.895 302.293,174.707C302.105,174.52 302,174.265 302,174C302,172.243 302,168.786 302,168.786Z" style="fill:rgb(144,224,239);"/>
</g>
<g transform="matrix(1,0,0,1,-1,-1)">
<circle cx="316" cy="150" r="2" style="fill:rgb(144,224,239);"/>
</g>
<g transform="matrix(1,0,0,1,0,0.339911)">
<path d="M303.523,168.763L305.902,172.883C306.167,173.342 306.604,173.677 307.116,173.815C307.629,173.952 308.175,173.88 308.634,173.615L310.366,172.615C311.323,172.062 311.65,170.839 311.098,169.883C311.098,169.883 308.739,165.796 308.739,165.796C309.123,164.716 309.838,162.639 310.26,160.986C310.321,160.745 310.702,159.233 310.788,158.799C311.29,156.274 310.914,153.563 309.526,151.16C306.491,145.903 299.758,144.098 294.5,147.134C289.242,150.17 287.438,156.903 290.474,162.16C292.054,164.897 294.635,166.698 297.488,167.368C297.649,167.406 298.69,167.68 299.041,167.771C300.611,168.179 302.497,168.563 303.523,168.763ZM307.366,167.419L309.366,170.883C309.366,170.883 307.634,171.883 307.634,171.883L305.634,168.419L307.366,167.419ZM308.129,161.204C307.662,162.857 307.005,164.713 306.729,165.477L304.305,166.877C303.538,166.731 301.616,166.354 299.936,165.935L308.129,161.204ZM308.807,158.504L297.193,165.209C295.161,164.543 293.358,163.156 292.206,161.16C289.722,156.859 291.198,151.35 295.5,148.866C299.802,146.382 305.311,147.859 307.794,152.16C308.929,154.126 309.237,156.344 308.827,158.41C308.821,158.437 308.815,158.468 308.807,158.504ZM315,145.66C313.344,145.66 312,147.004 312,148.66C312,150.316 313.344,151.66 315,151.66C316.656,151.66 318,150.316 318,148.66C318,147.004 316.656,145.66 315,145.66ZM315,147.66C315.552,147.66 316,148.108 316,148.66C316,149.212 315.552,149.66 315,149.66C314.448,149.66 314,149.212 314,148.66C314,148.108 314.448,147.66 315,147.66Z" style="fill:rgb(25,144,167);"/>
</g>
</g>
</svg>