<svg width="41" height="41" viewBox="0 0 41 41" fill="none" xmlns="http://www.w3.org/2000/svg">
<circle cx="20.5" cy="20.5" r="20.5" fill="#25D366"/>
<path d="M10.5821 29.6323L11.6758 24.5542C10.2701 22.3368 9.72165 19.6828 10.1335 17.0899C10.5454 14.497 11.8892 12.1435 13.9129 10.4709C15.9366 8.7984 18.5011 7.92176 21.1251 8.00549C23.7492 8.08922 26.2525 9.12758 28.1655 10.9257C30.0784 12.7239 31.2695 15.1583 31.5152 17.7722C31.7609 20.386 31.0444 22.9997 29.5001 25.1229C27.9559 27.2461 25.6899 28.7328 23.1274 29.3041C20.5649 29.8755 17.882 29.4921 15.5821 28.226L10.5821 29.6323Z" fill="#25D366" stroke="white" stroke-width="2.56852"/>
<path d="M25.0347 20.2574C24.8003 20.1011 24.566 20.023 24.3316 20.3355L23.3941 21.5855C23.1597 21.7418 23.0035 21.8199 22.691 21.6636C21.5191 21.0386 19.8785 20.3355 18.4722 17.9918C18.3941 17.6793 18.5503 17.523 18.7066 17.3668L19.4097 16.273C19.566 16.1168 19.4878 15.9605 19.4097 15.8043L18.4722 13.5386C18.2378 12.9136 18.0035 12.9918 17.7691 12.9918H17.1441C16.9878 12.9918 16.6753 13.0699 16.3628 13.3824C14.6441 15.1011 15.3472 17.523 16.5972 19.0855C16.8316 19.398 18.3941 22.2105 21.7535 23.6949C24.2535 24.7886 24.8003 24.6324 25.5035 24.4761C26.3628 24.398 27.2222 23.6949 27.6128 22.9918C27.691 22.7574 28.0816 21.7418 27.7691 21.5855" fill="white"/>
</svg>
